<svg xmlns="http://www.w3.org/2000/svg" xmlns:xlink="http://www.w3.org/1999/xlink" version="1.1" x="0px" y="0px" viewBox="0 0 200 200" enable-background="new 0 0 200 200" xml:space="preserve"><g><path d="M33,60h132c5.522,0,10-4.477,10-10s-4.478-10-10-10H33c-5.523,0-10,4.477-10,10S27.477,60,33,60z"></path><path d="M166,90H34c-5.523,0-10,4.477-10,10c0,5.522,4.477,10,10,10h132c5.522,0,10-4.478,10-10C176,94.477,171.522,90,166,90z"></path><path d="M166,140H34c-5.523,0-10,4.478-10,10s4.477,10,10,10h132c5.522,0,10-4.478,10-10S171.522,140,166,140z"></path></g></svg>