<svg xmlns="http://www.w3.org/2000/svg" viewBox="0 0 100 100"><path d="M79.57 5H20.43C11.907 5 5 11.908 5 20.43v59.14C5 88.092 11.908 95 20.43 95h59.14C88.092 95 95 88.092 95 79.57V20.43C95 11.907 88.092 5 79.57 5zM35.955 42.197l.02-.033c.18-.322.372-.635.573-.943.118-.18.243-.353.368-.53.14-.193.28-.383.428-.57.126-.163.25-.325.382-.48.25-.297.51-.584.782-.86.132-.137.27-.267.408-.398.195-.185.394-.366.6-.542.136-.118.27-.237.412-.35.317-.257.645-.503.98-.735.123-.084.25-.162.376-.242.266-.172.537-.337.814-.495.133-.075.265-.152.4-.224.385-.202.776-.394 1.177-.566.093-.04.19-.073.282-.11.344-.14.693-.27 1.05-.385.126-.043.252-.084.38-.122.44-.13.887-.25 1.343-.344.05-.01.103-.017.153-.027.42-.084.845-.146 1.274-.196l.38-.038c.482-.044.97-.074 1.462-.074s.977.03 1.46.074c.126.012.253.025.38.04.43.048.854.11 1.274.194.05.01.104.016.152.027.457.094.902.213 1.344.345.13.04.254.08.38.12.357.118.708.247 1.053.386.094.038.188.07.28.11.4.172.792.364 1.178.568.135.07.267.146.398.22.28.158.555.326.824.5.122.08.248.155.367.238.34.233.667.48.986.738.138.112.27.23.404.345.207.18.41.363.608.552.134.13.27.254.4.387.272.28.534.57.788.868.13.153.25.312.373.47.15.192.294.387.437.586.123.173.246.345.362.52 1.65 2.528 2.62 5.54 2.62 8.785 0 8.874-7.197 16.07-16.07 16.07-8.877 0-16.07-7.196-16.07-16.07 0-2.834.74-5.49 2.027-7.803zm49.402 32.578c0 6.248-5.066 11.313-11.314 11.313H25.957c-6.25 0-11.314-5.064-11.314-11.313V42.197H25.5c-.785 2.462-1.214 5.083-1.214 7.803C24.286 64.2 35.8 75.714 50 75.714S75.714 64.2 75.714 50c0-2.72-.43-5.34-1.213-7.803H85.36v32.578zm0-45.645c0 1.104-.896 2-2.003 2H72.357c-1.105 0-2-.895-2-2V18.132c0-1.105.895-2 2-2h10.997c1.107 0 2.003.896 2.003 2V29.13z"/></svg>