<svg xmlns="http://www.w3.org/2000/svg" viewBox="0 0 100 100"><path fill="none" d="M10.357 86.352c0 1.767 1.438 3.204 3.204 3.204h58.05V78.83c0-4.72 3.84-8.56 8.56-8.56h9.48V35.36H10.36v50.99zm52.685-38.575c0-2.915 1.742-5.28 3.89-5.28h9.944c2.148 0 3.89 2.365 3.89 5.28v5.476c0 2.915-1.742 5.28-3.89 5.28h-9.944c-2.148 0-3.89-2.365-3.89-5.28v-5.476zm-21.814 0c0-2.915 1.742-5.28 3.89-5.28h9.943c2.15 0 3.89 2.365 3.89 5.28v5.476c0 2.915-1.74 5.28-3.89 5.28h-9.94c-2.15 0-3.89-2.365-3.89-5.28v-5.476zm0 21.585c0-2.916 1.742-5.28 3.89-5.28h9.943c2.15 0 3.89 2.364 3.89 5.28v5.476c0 2.916-1.74 5.28-3.89 5.28h-9.94c-2.15 0-3.89-2.364-3.89-5.28v-5.476zM19.414 47.777c0-2.915 1.742-5.28 3.89-5.28h9.944c2.148 0 3.89 2.365 3.89 5.28v5.476c0 2.915-1.742 5.28-3.89 5.28h-9.944c-2.148 0-3.89-2.365-3.89-5.28v-5.476zm0 21.585c0-2.916 1.742-5.28 3.89-5.28h9.944c2.148 0 3.89 2.364 3.89 5.28v5.476c0 2.916-1.742 5.28-3.89 5.28h-9.944c-2.148 0-3.89-2.364-3.89-5.28v-5.476z"/><path fill="none" d="M76.965 78.83v9.278l11.858-12.48H80.17c-1.768 0-3.205 1.436-3.205 3.202z"/><path d="M86.44 12.413h-5.182v7.113c0 3.604-2.922 6.526-6.526 6.526h-.425c-3.604 0-6.526-2.922-6.526-6.526v-7.113H32.4v7.113c0 3.604-2.922 6.526-6.526 6.526h-.424c-3.605 0-6.527-2.922-6.527-6.527v-7.112h-5.36c-4.727 0-8.56 3.833-8.56 8.56v65.38c0 4.727 3.833 8.56 8.56 8.56h61.595c1.01 0 1.975-.42 2.663-1.162l16.21-17.47c.63-.67.97-1.55.97-2.47V20.98c0-4.728-3.83-8.56-8.56-8.56zm-9.475 75.695V78.83c0-1.766 1.438-3.203 3.204-3.203h8.65l-11.86 12.48zM89.643 70.27H80.17c-4.722 0-8.562 3.84-8.562 8.56v10.725H13.56c-1.765 0-3.203-1.437-3.203-3.204V35.36h79.286v34.91z"/><path d="M23.304 58.533h9.944c2.148 0 3.89-2.364 3.89-5.28V47.78c0-2.915-1.742-5.28-3.89-5.28h-9.944c-2.148 0-3.89 2.365-3.89 5.28v5.476c0 2.915 1.74 5.28 3.89 5.28zm21.814 0h9.943c2.15 0 3.89-2.364 3.89-5.28V47.78c0-2.915-1.74-5.28-3.89-5.28h-9.94c-2.15 0-3.89 2.365-3.89 5.28v5.476c0 2.915 1.74 5.28 3.89 5.28zm21.814 0h9.944c2.148 0 3.89-2.364 3.89-5.28V47.78c0-2.915-1.742-5.28-3.89-5.28h-9.944c-2.148 0-3.89 2.365-3.89 5.28v5.476c0 2.915 1.74 5.28 3.89 5.28zM23.304 80.118h9.944c2.148 0 3.89-2.363 3.89-5.28v-5.475c0-2.916-1.742-5.28-3.89-5.28h-9.944c-2.148 0-3.89 2.364-3.89 5.28v5.476c0 2.91 1.74 5.27 3.89 5.27zm21.814 0h9.943c2.15 0 3.89-2.363 3.89-5.28v-5.475c0-2.916-1.74-5.28-3.89-5.28h-9.94c-2.15 0-3.89 2.364-3.89 5.28v5.476c0 2.91 1.74 5.27 3.89 5.27zM25.448 23.25h.424c2.053 0 3.722-1.67 3.722-3.724V8.81c0-2.053-1.67-3.723-3.722-3.723h-.424c-2.053 0-3.723 1.67-3.723 3.723v10.716c0 2.053 1.67 3.723 3.723 3.723zm48.86 0h.424c2.053 0 3.722-1.67 3.722-3.724V8.81c0-2.053-1.67-3.723-3.722-3.723h-.425c-2.053 0-3.722 1.67-3.722 3.723v10.716c0 2.053 1.67 3.723 3.722 3.723z"/></svg>
