<svg xmlns="http://www.w3.org/2000/svg" viewBox="0 0 24 24"><path d="M12 2.31c-3.927 0-7.245 3.46-7.245 7.557 0 4.382 4.34 9.418 6.206 11.38.27.28.648.443 1.037.443.392 0 .772-.164 1.04-.45 1.868-1.99 6.21-7.08 6.21-11.373 0-4.096-3.318-7.557-7.245-7.557zm.608 18.527c-.166.177-.39.266-.613.266-.22 0-.443-.087-.61-.262-1.645-1.73-6.043-6.746-6.043-10.97 0-3.677 2.98-6.97 6.658-6.97 3.677 0 6.658 3.292 6.658 6.97 0 4.137-4.406 9.22-6.05 10.97z"/><path d="M12 4.416c-2.77 0-5.025 2.255-5.025 5.026 0 2.77 2.255 5.025 5.025 5.025 2.77 0 5.026-2.255 5.026-5.025 0-2.772-2.255-5.026-5.026-5.026zm0 9.464c-2.448 0-4.44-1.99-4.44-4.44 0-2.447 1.992-4.438 4.44-4.438 2.448 0 4.44 1.99 4.44 4.44 0 2.447-1.992 4.438-4.44 4.438z"/></svg>
