<svg xmlns="http://www.w3.org/2000/svg" viewBox="0 0 49.464 49.464">
  <path d="M5.265 6.65v36.183c0 3.152 3.08 6.3 6.185 6.605.18.018.482.026.66.026 2.336 0 4.395-1.435 5.997-2.587.28-.2.58-.394.835-.566 2.257-1.525 4.5-3.153 6.652-4.728 1.86-1.36 3.79-2.766 5.706-4.085 1.777-1.225 3.543-2.475 5.303-3.724l1.908-1.352c3.052-2.08 5.69-3.876 5.69-7.68 0-3.948-3.19-6.032-5.69-7.664-.374-.266-.758-.53-1.142-.794-.448-.308-.897-.616-1.333-.93-3.844-2.762-7.61-5.46-11.436-8.084-.53-.364-1.065-.735-1.602-1.108-1.4-.973-2.847-1.98-4.288-2.904-.34-.218-.7-.496-1.083-.788C16.185 1.368 14.39 0 12.215 0c-.87 0-1.958.225-2.735.666-1.83 1.04-4.215 3.23-4.215 5.985zm4 0c0-.786 1.103-1.886 2.19-2.504.176-.1.458-.145.636-.145.825 0 2.087.915 3.05 1.65.464.353.932.686 1.378.972 1.38.887 2.812 1.87 4.183 2.824.544.377 1.09.752 1.628 1.12 3.794 2.604 7.545 5.287 11.37 8.036.458.33.933.654 1.404.978.368.254.737.506 1.158.803 2.724 1.78 3.938 2.832 3.938 4.357 0 1.49-.79 2.23-3.967 4.396l-1.94 1.375c-1.743 1.238-3.49 2.48-5.252 3.692-1.96 1.352-3.907 2.773-5.79 4.15-2.124 1.552-4.32 3.158-6.518 4.645-.284.192-.584.407-.896.63-1.137.818-2.553 1.836-3.6 1.836-.05 0-.346-.002-.395-.007-1.066-.104-2.577-1.527-2.577-2.625V6.65h.002z"/>
</svg>
